PathFileType	4	(X/Y/Z)	E:\Qualisys_Data\Carbon_Farble_Plate\Data\Amateur_Runner\S2\T2\S2T2V11_c3d.trc
DataRate	CameraRate	NumFrames	NumMarkers	Units	OrigDataRate	OrigDataStartFrame	OrigNumFrames
200.000000	200.000000	4	39	mm	200.000000	203	326
Frame#	Time	LSHO			RSHO			LICST			RICST			LASIS			LHEEL			RASIS			LTROC			RTROC			SACR			LTH1			LSK4			LTH2			LTH3			RHM5			LSK2			LTH4			RTH1			LTOE			RTH2			RTH3			RTH4			LLEP			RLEP			LSK1			LSK3			RSK1			LHM5			RSK2			LFT1			RSK3			RSK4			LLME			RLME			RTOE			RHEEL			RFT1			RFT2			LFT2			
		X1	Y1	Z1	X2	Y2	Z2	X3	Y3	Z3	X4	Y4	Z4	X5	Y5	Z5	X6	Y6	Z6	X7	Y7	Z7	X8	Y8	Z8	X9	Y9	Z9	X10	Y10	Z10	X11	Y11	Z11	X12	Y12	Z12	X13	Y13	Z13	X14	Y14	Z14	X15	Y15	Z15	X16	Y16	Z16	X17	Y17	Z17	X18	Y18	Z18	X19	Y19	Z19	X20	Y20	Z20	X21	Y21	Z21	X22	Y22	Z22	X23	Y23	Z23	X24	Y24	Z24	X25	Y25	Z25	X26	Y26	Z26	X27	Y27	Z27	X28	Y28	Z28	X29	Y29	Z29	X30	Y30	Z30	X31	Y31	Z31	X32	Y32	Z32	X33	Y33	Z33	X34	Y34	Z34	X35	Y35	Z35	X36	Y36	Z36	X37	Y37	Z37	X38	Y38	Z38	X39	Y39	Z39	

204	1.015	538.3646850585938	1451.167236328125	-507.9656982421875	580.82275390625	1421.524780273438	-192.1054992675781	503.4788818359375	984.932861328125	-504.4500427246094	532.5499267578125	967.478271484375	-201.2599029541016	564.9759521484375	937.3666381835938	-487.8394775390625	296.6210021972656	320.3416137695312	-396.5324401855469	589.864501953125	922.0004272460938	-227.8538360595703	448.6114501953125	854.0079956054688	-510.814453125	439.4702758789062	867.2210083007812	-199.3555450439453	426.8783569335938	1017.817138671875	-342.5740051269531	651.8735961914062	674.8679809570312	-518.2059936523438	466.0799865722656	418.2595520019531	-487.2568054199219	575.0734252929688	639.8180541992188	-518.2047729492188	693.9317016601562	582.8218994140625	-498.7803344726562	317.2239379882812	62.92215347290039	-226.5409698486328	549.2935791015625	472.6229858398438	-500.7207641601562	615.0513916015625	549.31103515625	-495.6317443847656	546.4244995117188	608.5341186523438	-203.0108489990234	442.3984375	123.9857635498047	-447.1585388183594	469.2573852539062	618.7564086914062	-198.4486389160156	531.7724609375	510.1164245605469	-227.6345062255859	453.1338500976562	524.1654663085938	-218.4602813720703	664.46435546875	510.8496398925781	-498.0376892089844	472.4122009277344	472.5684814453125	-217.8278045654297	592.5986328125	406.6481018066406	-497.3542785644531	509.1434020996094	351.9346313476562	-486.3753662109375	443.2076110839844	350.5296630859375	-223.4039306640625	386.9048156738281	159.8412322998047	-495.3683471679688	378.7002563476562	395.4949340820312	-207.3113403320312	283.451416015625	293.3988952636719	-372.8428649902344	383.8078308105469	267.6069641113281	-233.5621948242188	321.4113159179688	314.9052124023438	-219.30029296875	341.9792175292969	285.1965637207031	-462.1572570800781	239.8386077880859	145.1739501953125	-253.3021087646484	385.4815063476562	51.56636810302734	-289.3943481445312	167.1668395996094	149.2923736572266	-309.6256103515625	171.8610382080078	115.5847091674805	-337.3655395507812	156.4366912841797	123.4614944458008	-284.7844543457031	269.9515991210938	299.6508483886719	-425.3513488769531
205	1.02	552.1246948242188	1455.94189453125	-508.3150329589844	598.5708618164062	1426.852416992188	-193.5755310058594	520.5272216796875	990.4948120117188	-504.6004028320312	550.962890625	971.9783325195312	-201.9622650146484	581.6013793945312	942.8079223632812	-488.4979248046875	322.8892822265625	309.9613952636719	-396.7075805664062	607.8588256835938	926.0067138671876	-228.8410949707031	465.9370727539062	859.4241943359375	-511.917236328125	457.0252685546875	871.9488525390625	-199.5221099853516	444.0330505371094	1022.422485351562	-342.0780639648438	670.8870239257812	681.876220703125	-517.9412231445312	488.5849304199219	415.2208557128906	-486.7802124023438	594.846923828125	646.0654296875	-518.5211791992188	713.4644775390625	590.051025390625	-497.6671142578125	319.3086853027344	63.62097930908203	-225.7874145507812	569.531494140625	472.9276123046875	-500.2724609375	635.0724487304688	555.7203979492188	-495.9720458984375	559.0115966796875	612.5931396484375	-203.6231689453125	478.7577209472656	121.0477905273438	-445.8403930664062	482.2643127441406	623.882568359375	-198.2352752685547	541.69140625	514.3673706054688	-227.9319610595703	463.5093383789062	529.880126953125	-218.2153015136719	683.936767578125	517.2974243164062	-497.0343017578125	481.6486206054688	478.1474609375	-217.4828796386719	615.70166015625	409.073486328125	-495.9167785644531	535.3606567382812	350.7650451660156	-486.2008972167969	450.1632690429688	356.3361206054688	-222.2474365234375	421.8033142089844	153.876220703125	-494.5821838378906	386.138916015625	401.8804321289062	-206.0951843261719	311.8739318847656	282.2187805175781	-373.3092651367188	391.2330322265625	273.5208129882812	-231.3765106201172	328.4407958984375	321.3058471679688	-218.0138397216797	370.5306091308594	276.9349975585938	-461.9114685058594	245.5477752685547	150.9128570556641	-252.1383209228516	386.6173706054688	51.68742752075195	-288.7249755859375	173.2794036865234	157.2513732910156	-308.457763671875	177.5041961669922	123.7959594726562	-336.7245788574219	161.7130432128906	131.3470306396484	-283.6793823242188	298.2240295410156	287.9938659667969	-425.2161560058594
206	1.025	565.7510986328125	1460.45556640625	-508.4721069335938	615.9317016601562	1431.912841796875	-194.84326171875	537.5975341796875	996.1185302734376	-505.1033630371094	568.9964599609375	975.821533203125	-202.9859619140625	597.9415893554688	948.1199340820312	-489.1119995117188	349.7527465820312	299.7862548828125	-396.6616821289062	625.60888671875	930.0368041992188	-230.1405181884766	483.2618713378906	865.0958862304688	-513.4530029296875	475.0106201171875	876.8212890625	-199.63720703125	461.1400146484375	1026.995483398438	-341.9051208496094	690.3234252929688	688.5398559570312	-517.5667114257812	510.49951171875	411.8472900390625	-487.152587890625	614.2548828125	652.9654541015625	-518.9849853515625	733.0053100585938	596.9520874023438	-496.4778747558594	321.5252380371094	64.43341827392578	-224.7543792724609	589.6576538085938	473.0899353027344	-500.4669799804688	655.0354614257812	562.3434448242188	-496.425537109375	571.7710571289062	616.500244140625	-205.0086212158203	515.1448974609375	118.3489761352539	-444.9331359863281	495.2739562988281	629.7672729492188	-198.0982971191406	552.7514038085938	518.7808837890625	-228.0233459472656	474.3603210449219	535.8328247070312	-217.3715667724609	703.136474609375	523.4307861328125	-496.1547546386719	490.9482116699219	483.3856201171875	-216.4883728027344	638.6025390625	411.8077087402344	-495.7306823730469	561.1094360351562	349.5364685058594	-485.3805236816406	457.8291015625	362.5797729492188	-220.3359069824219	456.4830932617188	148.6304626464844	-493.256103515625	393.3823547363281	408.0963439941406	-204.9187622070312	340.1898803710938	270.7433776855469	-373.2405090332031	398.1235961914062	280.1296691894531	-230.1075286865234	335.8323364257812	327.7839050292969	-216.7108612060547	398.8415832519531	268.8161315917969	-461.5406188964844	252.6215515136719	155.3506927490234	-250.8855590820312	388.9737243652344	51.36989974975586	-287.7437744140625	180.5865020751953	165.2633361816406	-307.0892028808594	183.9224700927734	132.50390625	-335.8972473144531	168.0084381103516	140.0997619628906	-283.089599609375	326.3162231445312	276.4357299804688	-425.2537841796875
207	1.03	579.692138671875	1465.312622070312	-508.4669189453125	633.14111328125	1437.256591796875	-195.9664916992188	554.4461059570312	1001.379272460938	-505.327392578125	587.322021484375	980.4918823242188	-203.6827239990234	614.2703247070312	953.2850341796876	-489.8873291015625	376.947265625	289.123291015625	-396.4931030273438	643.549072265625	934.2326049804688	-231.3546905517578	500.697509765625	870.5528564453125	-515.1260375976562	492.8384704589844	881.8085327148438	-199.9620361328125	478.3406372070312	1031.565307617188	-341.76611328125	709.29150390625	694.8305053710938	-517.3758544921875	535.0825805664062	408.0628356933594	-486.7346801757812	633.67236328125	659.2127685546875	-519.3179321289062	752.061279296875	603.593994140625	-495.614990234375	323.8703002929688	65.39256286621094	-223.6880645751953	610.2877807617188	472.2986145019531	-500.4353332519531	674.0860595703125	569.0093994140625	-497.7392883300781	584.761962890625	620.8618774414062	-204.9284515380859	551.3121948242188	116.189323425293	-443.92431640625	508.1516418457031	635.3782958984375	-198.4356536865234	563.8303833007812	523.588134765625	-226.9815673828125	485.8069152832031	541.9171752929688	-216.5679016113281	721.8365478515625	529.1192626953125	-495.5859069824219	500.4547119140625	488.7919006347656	-215.8776245117188	661.2034301757812	413.9553527832031	-495.0547180175781	586.4657592773438	348.4505920410156	-484.9336853027344	465.3382568359375	368.383056640625	-219.2613067626953	491.2559204101562	143.4211578369141	-492.1612243652344	401.6068115234375	414.6329040527344	-203.516357421875	369.83837890625	259.3370971679688	-372.7643432617188	405.6427001953125	286.2528991699219	-228.2753143310547	343.4252624511719	334.0784301757812	-215.0725402832031	428.2601013183594	260.6419677734375	-460.7412109375	259.5281677246094	160.7478942871094	-248.9749450683594	390.8126831054688	51.28871154785156	-286.7931213378906	188.9817657470703	174.2818756103516	-306.2639465332031	190.9444732666016	141.0620727539062	-334.8228759765625	175.0389404296875	149.0842895507812	-282.1112060546875	354.7350158691406	264.8388366699219	-425.2187194824219
